<svg xmlns="http://www.w3.org/2000/svg" version="1.1" xmlns:xlink="http://www.w3.org/1999/xlink" xmlns:svgjs="http://svgjs.dev/svgjs" width="2000" height="732" viewBox="0 0 2000 732"><g transform="matrix(1,0,0,1,-1.2121212121212466,-0.3178024115912308)"><svg viewBox="0 0 396 145" data-background-color="#000000" preserveAspectRatio="xMidYMid meet" height="732" width="2000" xmlns="http://www.w3.org/2000/svg" xmlns:xlink="http://www.w3.org/1999/xlink"><g id="tight-bounds" transform="matrix(1,0,0,1,0.2400000000000091,0.06295266349826534)"><svg viewBox="0 0 395.52 144.87409467300347" height="144.87409467300347" width="395.52"><g><svg viewBox="0 0 395.52 144.87409467300347" height="144.87409467300347" width="395.52"><g transform="matrix(1,0,0,1,0,74.55284907244045)"><svg viewBox="0 0 395.52 70.32124560056302" height="70.32124560056302" width="395.52"><g id="textblocktransform"><svg viewBox="0 0 395.52 70.32124560056302" height="70.32124560056302" width="395.52" id="textblock"><g><svg viewBox="0 0 395.52 70.32124560056302" height="70.32124560056302" width="395.52"><g transform="matrix(1,0,0,1,0,0)"><svg width="395.52" viewBox="1.66106 -20.497880000000002 265.44945999999993 47.19542" height="70.32124560056302" data-palette-color="url(#35c2cc34-9534-427f-a05a-1a9d6182ab5a)"></svg></g></svg></g></svg></g></svg></g><g transform="matrix(1,0,0,1,177.36028244644694,0)"><svg viewBox="0 0 40.79943510710609 70.32124560056302" height="70.32124560056302" width="40.79943510710609"><g><svg xmlns="http://www.w3.org/2000/svg" xmlns:xlink="http://www.w3.org/1999/xlink" version="1.1" x="0" y="0" viewBox="21.679106830508623 1 56.85827385947761 98" enable-background="new 0 0 100 100" xml:space="preserve" height="70.32124560056302" width="40.79943510710609" class="icon-icon-0" data-fill-palette-color="accent" id="icon-0"></svg></g></svg></g><g></g></svg></g><defs></defs><mask id="4558886b-3856-40f6-85c3-867694b6f501"><g id="SvgjsG3098"><svg viewBox="0 0 395.52 144.87409467300347" height="144.87409467300347" width="395.52"><g><svg viewBox="0 0 395.52 144.87409467300347" height="144.87409467300347" width="395.52"><g transform="matrix(1,0,0,1,0,74.55284907244045)"><svg viewBox="0 0 395.52 70.32124560056302" height="70.32124560056302" width="395.52"><g id="SvgjsG3097"><svg viewBox="0 0 395.52 70.32124560056302" height="70.32124560056302" width="395.52" id="SvgjsSvg3096"><g><svg viewBox="0 0 395.52 70.32124560056302" height="70.32124560056302" width="395.52"><g transform="matrix(1,0,0,1,0,0)"><svg width="395.52" viewBox="1.66106 -20.497880000000002 265.44945999999993 47.19542" height="70.32124560056302" data-palette-color="url(#35c2cc34-9534-427f-a05a-1a9d6182ab5a)"><path d="M5.924 13.948l-4.263-0.816 6.437-33.63 14.015 2.683c1.486 0.284 2.786 0.852 3.9 1.703 1.113 0.851 2.03 1.878 2.749 3.082 0.72 1.203 1.21 2.492 1.47 3.865 0.26 1.373 0.263 2.725 0.008 4.054v0c-0.351 1.833-1.094 3.5-2.23 5-1.142 1.499-2.551 2.62-4.228 3.365-1.682 0.737-3.518 0.915-5.508 0.534v0l-10.038-1.921zM11.635-15.891l-2.675 13.976 9.802 1.877c1.166 0.223 2.244 0.1 3.237-0.369 0.991-0.462 1.832-1.183 2.521-2.164 0.697-0.98 1.166-2.102 1.408-3.365v0c0.254-1.329 0.198-2.575-0.17-3.739-0.36-1.169-0.941-2.138-1.744-2.91-0.801-0.778-1.755-1.273-2.862-1.484v0zM25.793 17.651l18.735-31.91 3.633 0.519 8.994 35.874-4.584-0.655-2.59-10.502-14.225-2.034-5.379 9.363zM37.096 5.72l12.413 1.775-3.87-16.524zM66.6 23.062l-4.32-0.419 3.309-34.08 14.591 1.416c1.5 0.146 2.843 0.591 4.03 1.336 1.187 0.745 2.194 1.683 3.022 2.815 0.828 1.132 1.434 2.37 1.82 3.713 0.385 1.344 0.513 2.689 0.382 4.036v0c-0.152 1.566-0.592 3.024-1.319 4.373-0.728 1.356-1.674 2.477-2.838 3.362-1.172 0.891-2.496 1.456-3.972 1.694v0l6.983 13.859-4.887-0.474-6.595-12.998-9.017-0.875zM69.535-7.176l-1.374 14.164 10.321 1.002c1.181 0.115 2.245-0.114 3.191-0.685 0.94-0.572 1.711-1.378 2.315-2.418 0.603-1.04 0.965-2.184 1.086-3.431v0c0.124-1.281-0.05-2.483-0.524-3.608-0.473-1.131-1.143-2.06-2.01-2.787-0.866-0.734-1.857-1.155-2.972-1.263v0zM120.461-7.625l-0.185 3.855-11.806-0.565-1.453 30.346-4.335-0.208 1.453-30.345-11.797-0.565 0.185-3.855zM147.603-7.557l4.34 0.015-0.114 34.24-4.34-0.015 0.052-15.57-18.85-0.062-0.052 15.569-4.34-0.014 0.114-34.24 4.34 0.015-0.049 14.81 18.849 0.062zM164.821 26.202l-4.338 0.144-1.138-34.221 4.338-0.144zM199.061 15.077v0c0.121 1.762-0.222 3.33-1.029 4.702-0.807 1.379-1.947 2.49-3.419 3.333-1.472 0.843-3.123 1.328-4.951 1.454v0l-16.212 1.117-2.355-34.159 16.98-1.17c1.603-0.111 3.019 0.22 4.248 0.99 1.229 0.771 2.202 1.799 2.919 3.087 0.717 1.287 1.125 2.652 1.225 4.095v0c0.115 1.669-0.203 3.262-0.954 4.777-0.744 1.521-1.88 2.689-3.407 3.503v0c1.995 0.444 3.618 1.401 4.869 2.872 1.245 1.478 1.94 3.278 2.086 5.399zM194.628 14.601v0c-0.073-1.057-0.373-2.019-0.9-2.885-0.527-0.866-1.202-1.544-2.025-2.036-0.822-0.491-1.746-0.702-2.77-0.631v0l-12.221 0.843 0.809 11.742 11.882-0.819c1.057-0.073 1.993-0.411 2.807-1.016 0.814-0.604 1.436-1.365 1.867-2.284 0.438-0.912 0.622-1.884 0.551-2.914zM186.848-5.783l-11.164 0.77 0.786 11.393 10.874-0.75c1.024-0.071 1.911-0.389 2.66-0.955 0.75-0.566 1.327-1.298 1.734-2.194 0.406-0.897 0.573-1.861 0.502-2.892v0c-0.075-1.091-0.358-2.044-0.849-2.858-0.491-0.822-1.13-1.462-1.916-1.923-0.793-0.46-1.669-0.657-2.627-0.591zM202.033 23.542l9.8-35.681 3.644-0.442 18.005 32.305-4.596 0.558-5.23-9.469-14.265 1.732-2.762 10.439zM209.847 9.085l12.449-1.511-8.031-14.951zM263.216 14.689l-24.739-22.405 4.39 25.86-4.278 0.726-5.732-33.757 3.609-0.612 25.115 22.888-4.472-26.343 4.278-0.726 5.724 33.707z" opacity="1" transform="matrix(1,0,0,1,0,0)" fill="white" class="wordmark-text-0" id="SvgjsPath3095"></path></svg></g></svg></g></svg></g></svg></g><g transform="matrix(1,0,0,1,177.36028244644694,0)"><svg viewBox="0 0 40.79943510710609 70.32124560056302" height="70.32124560056302" width="40.79943510710609"><g><svg xmlns="http://www.w3.org/2000/svg" xmlns:xlink="http://www.w3.org/1999/xlink" version="1.1" x="0" y="0" viewBox="21.679106830508623 1 56.85827385947761 98" enable-background="new 0 0 100 100" xml:space="preserve" height="70.32124560056302" width="40.79943510710609" class="icon-icon-0" data-fill-palette-color="accent" id="SvgjsSvg3094"><g fill="black"><path fill-rule="evenodd" clip-rule="evenodd" d="M30.545 28.822c-1.165 7.217 0.33 14.85 6.5 19.041C30.758 19.81 45.756 8.664 59.646 1c-16.18 23.046 16.896 23.644 18.777 50.13C80.028 73.71 64.507 91.317 46.639 99c0.206-22.825-22.55-25.933-24.838-44.603C20.905 47.094 25.062 33.766 30.545 28.822z" fill="black"></path></g></svg></g></svg></g><g></g></svg></g><defs><mask></mask></defs></svg><rect width="395.52" height="144.87409467300347" fill="black" stroke="none" visibility="hidden"></rect></g></mask><linearGradient x1="0" x2="1" y1="0.5" y2="0.5" id="35c2cc34-9534-427f-a05a-1a9d6182ab5a"><stop stop-color="#f00b51" offset="0"></stop><stop stop-color="#730062" offset="1"></stop></linearGradient><rect width="395.52" height="144.87409467300347" fill="url(#35c2cc34-9534-427f-a05a-1a9d6182ab5a)" mask="url(#4558886b-3856-40f6-85c3-867694b6f501)" data-fill-palette-color="primary"></rect><mask id="1ce3c82c-8303-4d2c-99e4-13de0c0cfeea"><g id="SvgjsG3117"><svg viewBox="0 0 395.52 144.87409467300347" height="144.87409467300347" width="395.52"><g><svg viewBox="0 0 395.52 144.87409467300347" height="144.87409467300347" width="395.52"><g transform="matrix(1,0,0,1,0,74.55284907244045)"><svg viewBox="0 0 395.52 70.32124560056302" height="70.32124560056302" width="395.52"><g id="SvgjsG3116"><svg viewBox="0 0 395.52 70.32124560056302" height="70.32124560056302" width="395.52" id="SvgjsSvg3115"><g><svg viewBox="0 0 395.52 70.32124560056302" height="70.32124560056302" width="395.52"><g transform="matrix(1,0,0,1,0,0)"><svg width="395.52" viewBox="1.66106 -20.497880000000002 265.44945999999993 47.19542" height="70.32124560056302" data-palette-color="url(#35c2cc34-9534-427f-a05a-1a9d6182ab5a)"></svg></g></svg></g></svg></g></svg></g><g transform="matrix(1,0,0,1,177.36028244644694,0)"><svg viewBox="0 0 40.79943510710609 70.32124560056302" height="70.32124560056302" width="40.79943510710609"><g><svg xmlns="http://www.w3.org/2000/svg" xmlns:xlink="http://www.w3.org/1999/xlink" version="1.1" x="0" y="0" viewBox="21.679106830508623 1 56.85827385947761 98" enable-background="new 0 0 100 100" xml:space="preserve" height="70.32124560056302" width="40.79943510710609" class="icon-icon-0" data-fill-palette-color="accent" id="SvgjsSvg3114"><g fill="white"><path fill-rule="evenodd" clip-rule="evenodd" d="M30.545 28.822c-1.165 7.217 0.33 14.85 6.5 19.041C30.758 19.81 45.756 8.664 59.646 1c-16.18 23.046 16.896 23.644 18.777 50.13C80.028 73.71 64.507 91.317 46.639 99c0.206-22.825-22.55-25.933-24.838-44.603C20.905 47.094 25.062 33.766 30.545 28.822z" fill="white"></path></g></svg></g></svg></g><g></g></svg></g><defs><mask></mask></defs><mask><g id="SvgjsG3113"><svg viewBox="0 0 395.52 144.87409467300347" height="144.87409467300347" width="395.52"><g><svg viewBox="0 0 395.52 144.87409467300347" height="144.87409467300347" width="395.52"><g transform="matrix(1,0,0,1,0,74.55284907244045)"><svg viewBox="0 0 395.52 70.32124560056302" height="70.32124560056302" width="395.52"><g id="SvgjsG3112"><svg viewBox="0 0 395.52 70.32124560056302" height="70.32124560056302" width="395.52" id="SvgjsSvg3111"><g><svg viewBox="0 0 395.52 70.32124560056302" height="70.32124560056302" width="395.52"><g transform="matrix(1,0,0,1,0,0)"><svg width="395.52" viewBox="1.66106 -20.497880000000002 265.44945999999993 47.19542" height="70.32124560056302" data-palette-color="url(#35c2cc34-9534-427f-a05a-1a9d6182ab5a)"><path d="M5.924 13.948l-4.263-0.816 6.437-33.63 14.015 2.683c1.486 0.284 2.786 0.852 3.9 1.703 1.113 0.851 2.03 1.878 2.749 3.082 0.72 1.203 1.21 2.492 1.47 3.865 0.26 1.373 0.263 2.725 0.008 4.054v0c-0.351 1.833-1.094 3.5-2.23 5-1.142 1.499-2.551 2.62-4.228 3.365-1.682 0.737-3.518 0.915-5.508 0.534v0l-10.038-1.921zM11.635-15.891l-2.675 13.976 9.802 1.877c1.166 0.223 2.244 0.1 3.237-0.369 0.991-0.462 1.832-1.183 2.521-2.164 0.697-0.98 1.166-2.102 1.408-3.365v0c0.254-1.329 0.198-2.575-0.17-3.739-0.36-1.169-0.941-2.138-1.744-2.91-0.801-0.778-1.755-1.273-2.862-1.484v0zM25.793 17.651l18.735-31.91 3.633 0.519 8.994 35.874-4.584-0.655-2.59-10.502-14.225-2.034-5.379 9.363zM37.096 5.72l12.413 1.775-3.87-16.524zM66.6 23.062l-4.32-0.419 3.309-34.08 14.591 1.416c1.5 0.146 2.843 0.591 4.03 1.336 1.187 0.745 2.194 1.683 3.022 2.815 0.828 1.132 1.434 2.37 1.82 3.713 0.385 1.344 0.513 2.689 0.382 4.036v0c-0.152 1.566-0.592 3.024-1.319 4.373-0.728 1.356-1.674 2.477-2.838 3.362-1.172 0.891-2.496 1.456-3.972 1.694v0l6.983 13.859-4.887-0.474-6.595-12.998-9.017-0.875zM69.535-7.176l-1.374 14.164 10.321 1.002c1.181 0.115 2.245-0.114 3.191-0.685 0.94-0.572 1.711-1.378 2.315-2.418 0.603-1.04 0.965-2.184 1.086-3.431v0c0.124-1.281-0.05-2.483-0.524-3.608-0.473-1.131-1.143-2.06-2.01-2.787-0.866-0.734-1.857-1.155-2.972-1.263v0zM120.461-7.625l-0.185 3.855-11.806-0.565-1.453 30.346-4.335-0.208 1.453-30.345-11.797-0.565 0.185-3.855zM147.603-7.557l4.34 0.015-0.114 34.24-4.34-0.015 0.052-15.57-18.85-0.062-0.052 15.569-4.34-0.014 0.114-34.24 4.34 0.015-0.049 14.81 18.849 0.062zM164.821 26.202l-4.338 0.144-1.138-34.221 4.338-0.144zM199.061 15.077v0c0.121 1.762-0.222 3.33-1.029 4.702-0.807 1.379-1.947 2.49-3.419 3.333-1.472 0.843-3.123 1.328-4.951 1.454v0l-16.212 1.117-2.355-34.159 16.98-1.17c1.603-0.111 3.019 0.22 4.248 0.99 1.229 0.771 2.202 1.799 2.919 3.087 0.717 1.287 1.125 2.652 1.225 4.095v0c0.115 1.669-0.203 3.262-0.954 4.777-0.744 1.521-1.88 2.689-3.407 3.503v0c1.995 0.444 3.618 1.401 4.869 2.872 1.245 1.478 1.94 3.278 2.086 5.399zM194.628 14.601v0c-0.073-1.057-0.373-2.019-0.9-2.885-0.527-0.866-1.202-1.544-2.025-2.036-0.822-0.491-1.746-0.702-2.77-0.631v0l-12.221 0.843 0.809 11.742 11.882-0.819c1.057-0.073 1.993-0.411 2.807-1.016 0.814-0.604 1.436-1.365 1.867-2.284 0.438-0.912 0.622-1.884 0.551-2.914zM186.848-5.783l-11.164 0.77 0.786 11.393 10.874-0.75c1.024-0.071 1.911-0.389 2.66-0.955 0.75-0.566 1.327-1.298 1.734-2.194 0.406-0.897 0.573-1.861 0.502-2.892v0c-0.075-1.091-0.358-2.044-0.849-2.858-0.491-0.822-1.13-1.462-1.916-1.923-0.793-0.46-1.669-0.657-2.627-0.591zM202.033 23.542l9.8-35.681 3.644-0.442 18.005 32.305-4.596 0.558-5.23-9.469-14.265 1.732-2.762 10.439zM209.847 9.085l12.449-1.511-8.031-14.951zM263.216 14.689l-24.739-22.405 4.39 25.86-4.278 0.726-5.732-33.757 3.609-0.612 25.115 22.888-4.472-26.343 4.278-0.726 5.724 33.707z" opacity="1" transform="matrix(1,0,0,1,0,0)" fill="black" class="wordmark-text-0" id="SvgjsPath3110"></path></svg></g></svg></g></svg></g></svg></g><g transform="matrix(1,0,0,1,177.36028244644694,0)"><svg viewBox="0 0 40.79943510710609 70.32124560056302" height="70.32124560056302" width="40.79943510710609"><g><svg xmlns="http://www.w3.org/2000/svg" xmlns:xlink="http://www.w3.org/1999/xlink" version="1.1" x="0" y="0" viewBox="21.679106830508623 1 56.85827385947761 98" enable-background="new 0 0 100 100" xml:space="preserve" height="70.32124560056302" width="40.79943510710609" class="icon-icon-0" data-fill-palette-color="accent" id="SvgjsSvg3109"><g fill="black"><path fill-rule="evenodd" clip-rule="evenodd" d="M30.545 28.822c-1.165 7.217 0.33 14.85 6.5 19.041C30.758 19.81 45.756 8.664 59.646 1c-16.18 23.046 16.896 23.644 18.777 50.13C80.028 73.71 64.507 91.317 46.639 99c0.206-22.825-22.55-25.933-24.838-44.603C20.905 47.094 25.062 33.766 30.545 28.822z" fill="black"></path></g></svg></g></svg></g><g></g></svg></g><defs><mask></mask></defs></svg><rect width="395.52" height="144.87409467300347" fill="black" stroke="none" visibility="hidden"></rect></g></mask></svg><rect width="395.52" height="144.87409467300347" fill="black" stroke="none" visibility="hidden"></rect></g></mask><linearGradient x1="0" x2="1" y1="0.5" y2="0.5" id="f2ca5860-9cd0-4184-ab13-77aca620fea5"><stop stop-color="#f00b51" offset="0"></stop><stop stop-color="#730062" offset="1"></stop></linearGradient><rect width="395.52" height="144.87409467300347" fill="url(#f2ca5860-9cd0-4184-ab13-77aca620fea5)" mask="url(#1ce3c82c-8303-4d2c-99e4-13de0c0cfeea)" data-fill-palette-color="accent"></rect></svg><rect width="395.52" height="144.87409467300347" fill="none" stroke="none" visibility="hidden"></rect></g></svg></g></svg>